<svg width="258" height="40" viewBox="0 0 258 40" fill="none" xmlns="http://www.w3.org/2000/svg">
<path d="M238 0H20C8.9543 0 0 8.9543 0 20C0 31.0457 8.9543 40 20 40H238C249.046 40 258 31.0457 258 20C258 8.9543 249.046 0 238 0Z" fill="#F9F0FF"/>
<path d="M63.28 13.512V12.008H55.2V23H56.832V18.216H62.656V16.712H56.832V13.512H63.28ZM68.947 23.192C71.299 23.192 73.283 21.208 73.283 18.856C73.283 16.504 71.299 14.536 68.947 14.536C66.579 14.536 64.579 16.504 64.579 18.856C64.579 21.208 66.579 23.192 68.947 23.192ZM68.947 21.816C67.427 21.816 66.163 20.472 66.163 18.856C66.163 17.256 67.427 15.912 68.947 15.912C70.435 15.912 71.699 17.256 71.699 18.856C71.699 20.472 70.435 21.816 68.947 21.816ZM76.8004 16.312V14.728H75.2164V23H76.8004V18.296C76.9444 16.856 78.1604 15.912 79.8724 15.912V14.536C78.4484 14.536 77.3284 15.224 76.8004 16.312ZM94.1238 13.512V12.008H86.0438V23H94.1238V21.496H87.6758V18.152H93.4998V16.648H87.6758V13.512H94.1238ZM100.313 14.536C99.1931 14.536 98.1851 15.112 97.6891 15.928V14.728H96.1051V23H97.6891V17.64C97.8171 16.664 98.8091 15.912 99.9611 15.912C101.081 15.912 101.865 16.776 101.865 18.008V23H103.417V17.736C103.417 15.864 102.137 14.536 100.313 14.536ZM111.971 14.728V16.056C111.347 15.128 110.291 14.536 109.043 14.536C106.867 14.536 105.283 16.152 105.283 18.456C105.283 20.76 106.867 22.392 109.043 22.392C110.291 22.392 111.315 21.832 111.971 20.888V22.088C111.971 23.528 110.899 24.376 109.123 24.376C108.131 24.376 107.139 24.04 106.531 23.464L105.907 24.648C106.691 25.288 107.971 25.752 109.363 25.752C111.811 25.752 113.555 24.248 113.555 22.12V14.728H111.971ZM109.443 21.016C107.971 21.016 106.931 19.96 106.931 18.456C106.931 16.968 107.971 15.912 109.443 15.912C110.915 15.912 111.971 16.968 111.971 18.456C111.971 19.96 110.915 21.016 109.443 21.016ZM116.702 13.352C117.214 13.352 117.646 12.904 117.646 12.392C117.646 11.896 117.214 11.448 116.702 11.448C116.158 11.448 115.742 11.896 115.742 12.392C115.742 12.904 116.158 13.352 116.702 13.352ZM115.902 23H117.486V14.728H115.902V23ZM123.985 14.536C122.865 14.536 121.857 15.112 121.361 15.928V14.728H119.777V23H121.361V17.64C121.489 16.664 122.481 15.912 123.633 15.912C124.753 15.912 125.537 16.776 125.537 18.008V23H127.089V17.736C127.089 15.864 125.809 14.536 123.985 14.536ZM133.147 21.784C131.723 21.784 130.715 20.792 130.507 19.416H137.019C137.019 16.456 135.563 14.536 133.035 14.536C130.747 14.536 128.907 16.36 128.907 18.84C128.907 21.384 130.859 23.192 133.163 23.192C134.331 23.192 135.771 22.696 136.507 21.912L135.515 20.888C135.019 21.4 134.011 21.784 133.147 21.784ZM133.099 15.944C134.523 15.944 135.307 16.872 135.483 18.152H130.523C130.779 16.808 131.819 15.944 133.099 15.944ZM142.647 21.784C141.223 21.784 140.215 20.792 140.007 19.416H146.519C146.519 16.456 145.063 14.536 142.535 14.536C140.247 14.536 138.407 16.36 138.407 18.84C138.407 21.384 140.359 23.192 142.663 23.192C143.831 23.192 145.271 22.696 146.007 21.912L145.015 20.888C144.519 21.4 143.511 21.784 142.647 21.784ZM142.599 15.944C144.023 15.944 144.807 16.872 144.983 18.152H140.023C140.279 16.808 141.319 15.944 142.599 15.944ZM150.019 16.312V14.728H148.435V23H150.019V18.296C150.163 16.856 151.379 15.912 153.091 15.912V14.536C151.667 14.536 150.547 15.224 150.019 16.312ZM155.42 13.352C155.932 13.352 156.364 12.904 156.364 12.392C156.364 11.896 155.932 11.448 155.42 11.448C154.876 11.448 154.46 11.896 154.46 12.392C154.46 12.904 154.876 13.352 155.42 13.352ZM154.62 23H156.204V14.728H154.62V23ZM162.704 14.536C161.584 14.536 160.576 15.112 160.08 15.928V14.728H158.496V23H160.08V17.64C160.208 16.664 161.2 15.912 162.352 15.912C163.472 15.912 164.256 16.776 164.256 18.008V23H165.808V17.736C165.808 15.864 164.528 14.536 162.704 14.536ZM174.362 14.728V16.056C173.738 15.128 172.682 14.536 171.434 14.536C169.258 14.536 167.674 16.152 167.674 18.456C167.674 20.76 169.258 22.392 171.434 22.392C172.682 22.392 173.706 21.832 174.362 20.888V22.088C174.362 23.528 173.29 24.376 171.514 24.376C170.522 24.376 169.53 24.04 168.922 23.464L168.298 24.648C169.082 25.288 170.362 25.752 171.754 25.752C174.202 25.752 175.946 24.248 175.946 22.12V14.728H174.362ZM171.834 21.016C170.362 21.016 169.322 19.96 169.322 18.456C169.322 16.968 170.362 15.912 171.834 15.912C173.306 15.912 174.362 16.968 174.362 18.456C174.362 19.96 173.306 21.016 171.834 21.016ZM185.99 23H187.606V13.512H191.222V12.008H182.39V13.512H185.99V23ZM196.803 21.784C195.379 21.784 194.371 20.792 194.163 19.416H200.675C200.675 16.456 199.219 14.536 196.691 14.536C194.403 14.536 192.563 16.36 192.563 18.84C192.563 21.384 194.515 23.192 196.819 23.192C197.987 23.192 199.427 22.696 200.163 21.912L199.171 20.888C198.675 21.4 197.667 21.784 196.803 21.784ZM196.755 15.944C198.179 15.944 198.963 16.872 199.139 18.152H194.179C194.435 16.808 195.475 15.944 196.755 15.944ZM205.983 14.536C205.071 14.536 204.031 14.776 202.847 15.368L203.423 16.536C204.143 16.168 204.943 15.848 205.759 15.848C207.407 15.848 207.887 16.952 207.887 17.992V18.248C207.087 17.976 206.207 17.8 205.391 17.8C203.567 17.8 202.079 18.904 202.079 20.552C202.079 22.168 203.375 23.192 205.135 23.192C206.143 23.192 207.279 22.728 207.887 21.864V23H209.439V17.992C209.439 15.944 208.207 14.536 205.983 14.536ZM205.439 21.944C204.399 21.944 203.599 21.4 203.599 20.504C203.599 19.608 204.527 18.984 205.631 18.984C206.447 18.984 207.215 19.096 207.887 19.304V20.408C207.615 21.432 206.463 21.944 205.439 21.944ZM220.978 14.536C219.73 14.536 218.674 15.176 218.29 16.2C217.81 15.176 216.834 14.536 215.634 14.536C214.578 14.536 213.714 15.064 213.298 15.88V14.728H211.714V23H213.298V17.832C213.298 16.696 214.13 15.912 215.314 15.912C216.354 15.912 217.074 16.76 217.074 17.976V23H218.626V17.832C218.626 16.696 219.458 15.912 220.642 15.912C221.682 15.912 222.402 16.76 222.402 17.976V23H223.954V17.736C223.954 15.864 222.706 14.536 220.978 14.536ZM229.222 23.192C231.03 23.192 232.358 22.2 232.358 20.632C232.358 18.984 230.902 18.536 229.542 18.136C228.15 17.704 227.638 17.512 227.638 16.872C227.638 16.248 228.278 15.896 229.094 15.896C229.814 15.896 230.646 16.168 231.446 16.664L232.15 15.496C231.254 14.904 230.166 14.536 229.094 14.536C227.334 14.536 226.07 15.528 226.086 17.048C226.086 18.392 227.03 18.936 228.934 19.464C229.958 19.752 230.806 19.992 230.806 20.76C230.806 21.4 230.166 21.832 229.238 21.832C228.262 21.832 227.318 21.464 226.438 20.824L225.686 21.96C226.678 22.76 228.006 23.192 229.222 23.192Z" fill="#722ED1"/>
<path d="M28.387 10.4V8H26.842V10.4C25.9021 10.5918 25.0668 11.1258 24.4982 11.8985C23.9296 12.6711 23.6682 13.6273 23.7646 14.5818C23.861 15.5363 24.3084 16.4209 25.02 17.0643C25.7316 17.7076 26.6567 18.0638 27.616 18.0638C28.5753 18.0638 29.5005 17.7076 30.2121 17.0643C30.9237 16.4209 31.371 15.5363 31.4674 14.5818C31.5638 13.6273 31.3024 12.6711 30.7338 11.8985C30.1652 11.1258 29.3299 10.5918 28.39 10.4H28.387Z" fill="#722ED1"/>
<path d="M35.8 25.032H37.681V23.484H35.021L31.974 17.397C31.3365 18.2632 30.4564 18.921 29.445 19.287L31.545 23.487H28.387V21.935H26.839V23.483H23.682L25.782 19.283C24.7705 18.9172 23.8904 18.2594 23.253 17.393L20.2 23.484H17.548V25.032H19.429L16 31.881C16.8783 32.1006 17.8053 32.014 18.6278 31.6357C19.4503 31.2573 20.1192 30.6098 20.524 29.8L22.908 25.033H26.839V26.581H28.387V25.032H32.318L34.7 29.8C35.1048 30.6098 35.7737 31.2573 36.5962 31.6357C37.4187 32.014 38.3457 32.1006 39.224 31.881L35.8 25.032Z" fill="#722ED1"/>
</svg>
