<svg width="225" height="40" viewBox="0 0 225 40" fill="none" xmlns="http://www.w3.org/2000/svg">
<path d="M204.5 0H20.5C9.4543 0 0.5 8.9543 0.5 20C0.5 31.0457 9.4543 40 20.5 40H204.5C215.546 40 224.5 31.0457 224.5 20C224.5 8.9543 215.546 0 204.5 0Z" fill="#F9F0FF"/>
<path d="M63.78 15.512V14.008H55.7V25H57.332V20.216H63.156V18.712H57.332V15.512H63.78ZM69.447 25.192C71.799 25.192 73.783 23.208 73.783 20.856C73.783 18.504 71.799 16.536 69.447 16.536C67.079 16.536 65.079 18.504 65.079 20.856C65.079 23.208 67.079 25.192 69.447 25.192ZM69.447 23.816C67.927 23.816 66.663 22.472 66.663 20.856C66.663 19.256 67.927 17.912 69.447 17.912C70.935 17.912 72.199 19.256 72.199 20.856C72.199 22.472 70.935 23.816 69.447 23.816ZM77.3004 18.312V16.728H75.7164V25H77.3004V20.296C77.4444 18.856 78.6604 17.912 80.3724 17.912V16.536C78.9484 16.536 77.8284 17.224 77.3004 18.312ZM86.5438 25H88.1598V21.176H91.1678C93.4878 21.176 95.2478 19.688 95.2478 17.592C95.2478 15.496 93.4878 14.008 91.1678 14.008H86.5438V25ZM88.1598 19.672V15.512H90.9438C92.5278 15.512 93.5998 16.296 93.5998 17.592C93.5998 18.888 92.5278 19.672 90.9438 19.672H88.1598ZM98.5504 18.312V16.728H96.9664V25H98.5504V20.296C98.6944 18.856 99.9104 17.912 101.622 17.912V16.536C100.198 16.536 99.0784 17.224 98.5504 18.312ZM106.838 25.192C109.19 25.192 111.174 23.208 111.174 20.856C111.174 18.504 109.19 16.536 106.838 16.536C104.47 16.536 102.47 18.504 102.47 20.856C102.47 23.208 104.47 25.192 106.838 25.192ZM106.838 23.816C105.318 23.816 104.054 22.472 104.054 20.856C104.054 19.256 105.318 17.912 106.838 17.912C108.326 17.912 109.59 19.256 109.59 20.856C109.59 22.472 108.326 23.816 106.838 23.816ZM119.395 13.816V18.152C118.755 17.144 117.731 16.536 116.451 16.536C114.275 16.536 112.643 18.328 112.643 20.856C112.643 23.4 114.275 25.192 116.451 25.192C117.731 25.192 118.755 24.584 119.395 23.56V25H120.963V13.816H119.395ZM116.835 23.816C115.315 23.816 114.243 22.584 114.243 20.856C114.243 19.128 115.315 17.912 116.835 17.912C118.323 17.912 119.395 19.128 119.395 20.856C119.395 22.584 118.323 23.816 116.835 23.816ZM129.036 16.728V22.088C128.908 23.064 127.916 23.816 126.764 23.816C125.644 23.816 124.86 22.952 124.86 21.72V16.728H123.308V21.992C123.308 23.864 124.588 25.192 126.411 25.192C127.532 25.192 128.54 24.616 129.036 23.8V25H130.62V16.728H129.036ZM136.822 25.192C138.054 25.192 139.126 24.68 139.926 23.864L138.854 22.888C138.342 23.464 137.606 23.816 136.838 23.816C135.318 23.816 134.07 22.472 134.07 20.856C134.07 19.256 135.318 17.912 136.822 17.912C137.59 17.912 138.31 18.248 138.806 18.808L139.878 17.816C139.094 17.032 138.022 16.536 136.838 16.536C134.47 16.536 132.47 18.504 132.47 20.856C132.47 23.208 134.47 25.192 136.822 25.192ZM145.493 23.512C145.317 23.688 144.997 23.816 144.645 23.816C144.181 23.816 143.797 23.4 143.797 22.824V18.072H145.749V16.728H143.797V14.456H142.245V16.728H140.997V18.072H142.245V22.936C142.245 24.264 143.141 25.192 144.421 25.192C145.013 25.192 145.621 24.968 146.069 24.6L145.493 23.512ZM155.365 25H156.981V15.512H160.597V14.008H151.765V15.512H155.365V25ZM166.178 23.784C164.754 23.784 163.746 22.792 163.538 21.416H170.05C170.05 18.456 168.594 16.536 166.066 16.536C163.778 16.536 161.938 18.36 161.938 20.84C161.938 23.384 163.89 25.192 166.194 25.192C167.362 25.192 168.802 24.696 169.538 23.912L168.546 22.888C168.05 23.4 167.042 23.784 166.178 23.784ZM166.13 17.944C167.554 17.944 168.338 18.872 168.514 20.152H163.554C163.81 18.808 164.85 17.944 166.13 17.944ZM175.358 16.536C174.446 16.536 173.406 16.776 172.222 17.368L172.798 18.536C173.518 18.168 174.318 17.848 175.134 17.848C176.782 17.848 177.262 18.952 177.262 19.992V20.248C176.462 19.976 175.582 19.8 174.766 19.8C172.942 19.8 171.454 20.904 171.454 22.552C171.454 24.168 172.75 25.192 174.51 25.192C175.518 25.192 176.654 24.728 177.262 23.864V25H178.814V19.992C178.814 17.944 177.582 16.536 175.358 16.536ZM174.814 23.944C173.774 23.944 172.974 23.4 172.974 22.504C172.974 21.608 173.902 20.984 175.006 20.984C175.822 20.984 176.59 21.096 177.262 21.304V22.408C176.99 23.432 175.838 23.944 174.814 23.944ZM190.353 16.536C189.105 16.536 188.049 17.176 187.665 18.2C187.185 17.176 186.209 16.536 185.009 16.536C183.953 16.536 183.089 17.064 182.673 17.88V16.728H181.089V25H182.673V19.832C182.673 18.696 183.505 17.912 184.689 17.912C185.729 17.912 186.449 18.76 186.449 19.976V25H188.001V19.832C188.001 18.696 188.833 17.912 190.017 17.912C191.057 17.912 191.777 18.76 191.777 19.976V25H193.329V19.736C193.329 17.864 192.081 16.536 190.353 16.536ZM198.597 25.192C200.405 25.192 201.733 24.2 201.733 22.632C201.733 20.984 200.277 20.536 198.917 20.136C197.525 19.704 197.013 19.512 197.013 18.872C197.013 18.248 197.653 17.896 198.469 17.896C199.189 17.896 200.021 18.168 200.821 18.664L201.525 17.496C200.629 16.904 199.541 16.536 198.469 16.536C196.709 16.536 195.445 17.528 195.461 19.048C195.461 20.392 196.405 20.936 198.309 21.464C199.333 21.752 200.181 21.992 200.181 22.76C200.181 23.4 199.541 23.832 198.613 23.832C197.637 23.832 196.693 23.464 195.813 22.824L195.061 23.96C196.053 24.76 197.381 25.192 198.597 25.192Z" fill="#722ED1"/>
<path d="M24.5 15.598V13.828C25.1672 13.5921 25.7296 13.1279 26.0876 12.5175C26.4457 11.9071 26.5765 11.1898 26.4568 10.4923C26.3371 9.79477 25.9747 9.16204 25.4337 8.70589C24.8926 8.24975 24.2077 7.99957 23.5 7.99957C22.7923 7.99957 22.1074 8.24975 21.5663 8.70589C21.0253 9.16204 20.6629 9.79477 20.5432 10.4923C20.4235 11.1898 20.5543 11.9071 20.9124 12.5175C21.2705 13.1279 21.8328 13.5921 22.5 13.828V16.012C22.5001 16.2772 22.6055 16.5315 22.793 16.719L25.5 19.426V31.012C25.5 31.2772 25.6054 31.5316 25.7929 31.7191C25.9804 31.9066 26.2348 32.012 26.5 32.012C26.7652 32.012 27.0196 31.9066 27.2071 31.7191C27.3946 31.5316 27.5 31.2772 27.5 31.012V19.012C27.4999 18.7468 27.3946 18.4925 27.207 18.305L24.5 15.598Z" fill="#722ED1"/>
<path d="M20.5 24.598V22.828C21.1672 22.5921 21.7296 22.1279 22.0876 21.5175C22.4457 20.9071 22.5765 20.1898 22.4568 19.4923C22.3371 18.7948 21.9747 18.162 21.4337 17.7059C20.8926 17.2498 20.2077 16.9996 19.5 16.9996C18.7923 16.9996 18.1074 17.2498 17.5663 17.7059C17.0253 18.162 16.6629 18.7948 16.5432 19.4923C16.4235 20.1898 16.5543 20.9071 16.9124 21.5175C17.2705 22.1279 17.8328 22.5921 18.5 22.828V25.012C18.5001 25.2772 18.6055 25.5315 18.793 25.719L21.5 28.426V31.012C21.5 31.2772 21.6054 31.5316 21.7929 31.7191C21.9804 31.9066 22.2348 32.012 22.5 32.012C22.7652 32.012 23.0196 31.9066 23.2071 31.7191C23.3946 31.5316 23.5 31.2772 23.5 31.012V28.012C23.4999 27.7468 23.3946 27.4925 23.207 27.305L20.5 24.598Z" fill="#722ED1"/>
<path d="M34.5 16.012V13.828C35.1672 13.5921 35.7296 13.1279 36.0876 12.5175C36.4457 11.9071 36.5765 11.1898 36.4568 10.4923C36.3371 9.79477 35.9747 9.16204 35.4337 8.70589C34.8926 8.24975 34.2077 7.99957 33.5 7.99957C32.7923 7.99957 32.1074 8.24975 31.5663 8.70589C31.0253 9.16204 30.6629 9.79477 30.5432 10.4923C30.4235 11.1898 30.5543 11.9071 30.9124 12.5175C31.2704 13.1279 31.8328 13.5921 32.5 13.828V15.598L29.793 18.305C29.6055 18.4925 29.5001 18.7468 29.5 19.012V31.012C29.5 31.2772 29.6054 31.5316 29.7929 31.7191C29.9804 31.9066 30.2348 32.012 30.5 32.012C30.7652 32.012 31.0196 31.9066 31.2071 31.7191C31.3946 31.5316 31.5 31.2772 31.5 31.012V19.426L34.207 16.719C34.3946 16.5315 34.4999 16.2772 34.5 16.012Z" fill="#722ED1"/>
<path d="M40.5 20.012C40.5023 19.4615 40.353 18.9209 40.0686 18.4496C39.7842 17.9782 39.3755 17.5942 38.8874 17.3396C38.3993 17.0851 37.8505 16.9697 37.3012 17.0062C36.7519 17.0427 36.2232 17.2296 35.7731 17.5465C35.3229 17.8634 34.9686 18.2981 34.749 18.8029C34.5294 19.3077 34.453 19.8633 34.528 20.4086C34.6031 20.954 34.8268 21.4682 35.1746 21.895C35.5224 22.3217 35.981 22.6445 36.5 22.828V24.598L33.793 27.305C33.6054 27.4925 33.5001 27.7468 33.5 28.012V31.012C33.5 31.2772 33.6054 31.5316 33.7929 31.7191C33.9804 31.9066 34.2348 32.012 34.5 32.012C34.7652 32.012 35.0196 31.9066 35.2071 31.7191C35.3946 31.5316 35.5 31.2772 35.5 31.012V28.426L38.207 25.719C38.3946 25.5315 38.4999 25.2772 38.5 25.012V22.828C39.0829 22.6219 39.5879 22.2408 39.9459 21.7367C40.3039 21.2326 40.4974 20.6303 40.5 20.012Z" fill="#722ED1"/>
</svg>
