<svg width="258" height="40" viewBox="0 0 258 40" fill="none" xmlns="http://www.w3.org/2000/svg">
<rect width="258" height="40" rx="20" fill="#F7F1FF"/>
<path d="M29 18C28.8011 18 28.6103 17.921 28.4697 17.7803C28.329 17.6397 28.25 17.4489 28.25 17.25C28.25 16.8522 28.092 16.4706 27.8107 16.1893C27.5294 15.908 27.1478 15.75 26.75 15.75C26.5511 15.75 26.3603 15.671 26.2197 15.5303C26.079 15.3897 26 15.1989 26 15C26 14.8011 26.079 14.6103 26.2197 14.4697C26.3603 14.329 26.5511 14.25 26.75 14.25C27.1478 14.25 27.5294 14.092 27.8107 13.8107C28.092 13.5294 28.25 13.1478 28.25 12.75C28.25 12.5511 28.329 12.3603 28.4697 12.2197C28.6103 12.079 28.8011 12 29 12C29.1989 12 29.3897 12.079 29.5303 12.2197C29.671 12.3603 29.75 12.5511 29.75 12.75C29.75 13.1478 29.908 13.5294 30.1893 13.8107C30.4706 14.092 30.8522 14.25 31.25 14.25C31.4489 14.25 31.6397 14.329 31.7803 14.4697C31.921 14.6103 32 14.8011 32 15C32 15.1989 31.921 15.3897 31.7803 15.5303C31.6397 15.671 31.4489 15.75 31.25 15.75C30.8522 15.75 30.4706 15.908 30.1893 16.1893C29.908 16.4706 29.75 16.8522 29.75 17.25C29.75 17.4489 29.671 17.6397 29.5303 17.7803C29.3897 17.921 29.1989 18 29 18Z" fill="#722ED1"/>
<path d="M22 28C21.7348 28 21.4804 27.8946 21.2929 27.7071C21.1054 27.5196 21 27.2652 21 27C21 25.9391 20.5786 24.9217 19.8284 24.1716C19.0783 23.4214 18.0609 23 17 23C16.7348 23 16.4804 22.8946 16.2929 22.7071C16.1054 22.5196 16 22.2652 16 22C16 21.7348 16.1054 21.4804 16.2929 21.2929C16.4804 21.1054 16.7348 21 17 21C18.0609 21 19.0783 20.5786 19.8284 19.8284C20.5786 19.0783 21 18.0609 21 17C21 16.7348 21.1054 16.4804 21.2929 16.2929C21.4804 16.1054 21.7348 16 22 16C22.2652 16 22.5196 16.1054 22.7071 16.2929C22.8946 16.4804 23 16.7348 23 17C23 18.0609 23.4214 19.0783 24.1716 19.8284C24.9217 20.5786 25.9391 21 27 21C27.2652 21 27.5196 21.1054 27.7071 21.2929C27.8946 21.4804 28 21.7348 28 22C28 22.2652 27.8946 22.5196 27.7071 22.7071C27.5196 22.8946 27.2652 23 27 23C25.9391 23 24.9217 23.4214 24.1716 24.1716C23.4214 24.9217 23 25.9391 23 27C23 27.2652 22.8946 27.5196 22.7071 27.7071C22.5196 27.8946 22.2652 28 22 28Z" fill="#722ED1"/>
<path d="M47.904 25H49.392L52.88 16.728H51.168L48.64 23.16L46.064 16.728H44.352L47.904 25ZM57.9384 25.192C60.3224 25.192 61.9064 23.848 61.9064 21.992C61.9064 20.456 60.7064 19.624 59.5544 19.368C60.7064 19.016 61.6664 18.168 61.6664 16.808C61.6664 15.048 60.1144 13.816 57.8904 13.816C56.0984 13.816 54.8504 14.648 54.0024 15.752L55.0104 16.744C55.7784 15.848 56.6264 15.272 57.7784 15.272C59.0584 15.272 60.0184 16.008 60.0184 17.032C60.0184 18.136 59.0424 18.744 57.6504 18.744L56.4504 18.728V20.168H57.6504C59.2984 20.152 60.2424 20.744 60.2424 21.88C60.2424 22.984 59.3304 23.736 57.9064 23.736C56.6424 23.736 55.5704 23.144 54.8344 22.248L53.7944 23.32C54.6424 24.376 56.0664 25.192 57.9384 25.192ZM64.8628 25.192C65.4388 25.192 65.9028 24.696 65.9028 24.104C65.9028 23.56 65.4388 23.064 64.8628 23.064C64.2548 23.064 63.7908 23.56 63.7908 24.104C63.7908 24.696 64.2548 25.192 64.8628 25.192ZM69.8811 25H71.5131V14.008H70.2011L67.3051 15.976L67.9771 17.144L69.8811 15.928V25ZM80.3316 18.312V16.728H78.7476V25H80.3316V20.296C80.4756 18.856 81.6916 17.912 83.4036 17.912V16.536C81.9796 16.536 80.8596 17.224 80.3316 18.312ZM88.7409 23.784C87.3169 23.784 86.3089 22.792 86.1009 21.416H92.6129C92.6129 18.456 91.1569 16.536 88.6289 16.536C86.3409 16.536 84.5009 18.36 84.5009 20.84C84.5009 23.384 86.4529 25.192 88.7569 25.192C89.9249 25.192 91.3649 24.696 92.1009 23.912L91.1089 22.888C90.6129 23.4 89.6049 23.784 88.7409 23.784ZM88.6929 17.944C90.1169 17.944 90.9009 18.872 91.0769 20.152H86.1169C86.3729 18.808 87.4129 17.944 88.6929 17.944ZM94.4489 25H96.0169V13.816H94.4489V25ZM102.116 23.784C100.692 23.784 99.6839 22.792 99.4759 21.416H105.988C105.988 18.456 104.532 16.536 102.004 16.536C99.7159 16.536 97.8759 18.36 97.8759 20.84C97.8759 23.384 99.8279 25.192 102.132 25.192C103.3 25.192 104.74 24.696 105.476 23.912L104.484 22.888C103.988 23.4 102.98 23.784 102.116 23.784ZM102.068 17.944C103.492 17.944 104.276 18.872 104.452 20.152H99.4919C99.7479 18.808 100.788 17.944 102.068 17.944ZM111.296 16.536C110.384 16.536 109.344 16.776 108.16 17.368L108.736 18.536C109.456 18.168 110.256 17.848 111.072 17.848C112.72 17.848 113.2 18.952 113.2 19.992V20.248C112.4 19.976 111.52 19.8 110.704 19.8C108.88 19.8 107.392 20.904 107.392 22.552C107.392 24.168 108.688 25.192 110.448 25.192C111.456 25.192 112.592 24.728 113.2 23.864V25H114.752V19.992C114.752 17.944 113.52 16.536 111.296 16.536ZM110.752 23.944C109.712 23.944 108.912 23.4 108.912 22.504C108.912 21.608 109.84 20.984 110.944 20.984C111.76 20.984 112.528 21.096 113.2 21.304V22.408C112.928 23.432 111.776 23.944 110.752 23.944ZM120.035 25.192C121.843 25.192 123.171 24.2 123.171 22.632C123.171 20.984 121.715 20.536 120.355 20.136C118.963 19.704 118.451 19.512 118.451 18.872C118.451 18.248 119.091 17.896 119.907 17.896C120.627 17.896 121.459 18.168 122.259 18.664L122.963 17.496C122.067 16.904 120.979 16.536 119.907 16.536C118.147 16.536 116.883 17.528 116.899 19.048C116.899 20.392 117.843 20.936 119.747 21.464C120.771 21.752 121.619 21.992 121.619 22.76C121.619 23.4 120.979 23.832 120.051 23.832C119.075 23.832 118.131 23.464 117.251 22.824L116.499 23.96C117.491 24.76 118.819 25.192 120.035 25.192ZM128.803 23.784C127.379 23.784 126.371 22.792 126.163 21.416H132.675C132.675 18.456 131.219 16.536 128.691 16.536C126.403 16.536 124.563 18.36 124.563 20.84C124.563 23.384 126.515 25.192 128.819 25.192C129.987 25.192 131.427 24.696 132.163 23.912L131.171 22.888C130.675 23.4 129.667 23.784 128.803 23.784ZM128.755 17.944C130.179 17.944 130.963 18.872 131.139 20.152H126.179C126.435 18.808 127.475 17.944 128.755 17.944ZM140.879 13.816V18.152C140.239 17.144 139.215 16.536 137.935 16.536C135.759 16.536 134.127 18.328 134.127 20.856C134.127 23.4 135.759 25.192 137.935 25.192C139.215 25.192 140.239 24.584 140.879 23.56V25H142.447V13.816H140.879ZM138.319 23.816C136.799 23.816 135.727 22.584 135.727 20.856C135.727 19.128 136.799 17.912 138.319 17.912C139.807 17.912 140.879 19.128 140.879 20.856C140.879 22.584 139.807 23.816 138.319 23.816ZM145.816 25.192C146.392 25.192 146.856 24.696 146.856 24.104C146.856 23.56 146.392 23.064 145.816 23.064C145.208 23.064 144.744 23.56 144.744 24.104C144.744 24.696 145.208 25.192 145.816 25.192ZM155.172 23.496V14.008H153.54V25H160.996V23.496H155.172ZM166.444 23.784C165.02 23.784 164.012 22.792 163.804 21.416H170.316C170.316 18.456 168.86 16.536 166.332 16.536C164.044 16.536 162.204 18.36 162.204 20.84C162.204 23.384 164.156 25.192 166.46 25.192C167.628 25.192 169.068 24.696 169.804 23.912L168.812 22.888C168.316 23.4 167.308 23.784 166.444 23.784ZM166.396 17.944C167.82 17.944 168.604 18.872 168.78 20.152H163.82C164.076 18.808 165.116 17.944 166.396 17.944ZM175.624 16.536C174.712 16.536 173.672 16.776 172.488 17.368L173.064 18.536C173.784 18.168 174.584 17.848 175.4 17.848C177.048 17.848 177.528 18.952 177.528 19.992V20.248C176.728 19.976 175.848 19.8 175.032 19.8C173.208 19.8 171.72 20.904 171.72 22.552C171.72 24.168 173.016 25.192 174.776 25.192C175.784 25.192 176.92 24.728 177.528 23.864V25H179.08V19.992C179.08 17.944 177.848 16.536 175.624 16.536ZM175.08 23.944C174.04 23.944 173.24 23.4 173.24 22.504C173.24 21.608 174.168 20.984 175.272 20.984C176.088 20.984 176.856 21.096 177.528 21.304V22.408C177.256 23.432 176.104 23.944 175.08 23.944ZM183.035 18.312V16.728H181.451V25H183.035V20.296C183.179 18.856 184.395 17.912 186.107 17.912V16.536C184.683 16.536 183.563 17.224 183.035 18.312ZM191.86 16.536C190.74 16.536 189.732 17.112 189.236 17.928V16.728H187.652V25H189.236V19.64C189.364 18.664 190.356 17.912 191.508 17.912C192.628 17.912 193.412 18.776 193.412 20.008V25H194.964V19.736C194.964 17.864 193.684 16.536 191.86 16.536ZM211.056 16.536C209.808 16.536 208.752 17.176 208.368 18.2C207.888 17.176 206.912 16.536 205.712 16.536C204.656 16.536 203.792 17.064 203.376 17.88V16.728H201.792V25H203.376V19.832C203.376 18.696 204.208 17.912 205.392 17.912C206.432 17.912 207.152 18.76 207.152 19.976V25H208.704V19.832C208.704 18.696 209.536 17.912 210.72 17.912C211.76 17.912 212.48 18.76 212.48 19.976V25H214.032V19.736C214.032 17.864 212.784 16.536 211.056 16.536ZM220.228 25.192C222.58 25.192 224.564 23.208 224.564 20.856C224.564 18.504 222.58 16.536 220.228 16.536C217.86 16.536 215.86 18.504 215.86 20.856C215.86 23.208 217.86 25.192 220.228 25.192ZM220.228 23.816C218.708 23.816 217.444 22.472 217.444 20.856C217.444 19.256 218.708 17.912 220.228 17.912C221.716 17.912 222.98 19.256 222.98 20.856C222.98 22.472 221.716 23.816 220.228 23.816ZM228.082 18.312V16.728H226.498V25H228.082V20.296C228.226 18.856 229.442 17.912 231.154 17.912V16.536C229.73 16.536 228.61 17.224 228.082 18.312ZM236.491 23.784C235.067 23.784 234.059 22.792 233.851 21.416H240.363C240.363 18.456 238.907 16.536 236.379 16.536C234.091 16.536 232.251 18.36 232.251 20.84C232.251 23.384 234.203 25.192 236.507 25.192C237.675 25.192 239.115 24.696 239.851 23.912L238.859 22.888C238.363 23.4 237.355 23.784 236.491 23.784ZM236.443 17.944C237.867 17.944 238.651 18.872 238.827 20.152H233.867C234.123 18.808 235.163 17.944 236.443 17.944Z" fill="#722ED1"/>
<path d="M152.484 27.128H241.051V27.448H152.484V27.128Z" fill="#722ED1"/>
</svg>
