<svg width="159" height="40" viewBox="0 0 159 40" fill="none" xmlns="http://www.w3.org/2000/svg">
<rect x="0.612427" width="157.775" height="40" rx="20" fill="#F7F1FF"/>
<path d="M42.232 19.347C41.0487 16.9779 39.2331 14.9824 36.986 13.5813C34.739 12.1801 32.1481 11.4279 29.5 11.408C26.852 11.4282 24.2612 12.1805 22.0142 13.5816C19.7672 14.9827 17.9515 16.9781 16.768 19.347C16.6657 19.5494 16.6124 19.7731 16.6124 20C16.6124 20.2268 16.6657 20.4505 16.768 20.653C17.9513 23.022 19.767 25.0175 22.014 26.4186C24.2611 27.8198 26.852 28.572 29.5 28.592C32.148 28.5717 34.7388 27.8195 36.9858 26.4183C39.2329 25.0172 41.0485 23.0218 42.232 20.653C42.3343 20.4505 42.3876 20.2268 42.3876 20C42.3876 19.7731 42.3343 19.5494 42.232 19.347ZM29.5 26.447C28.2255 26.447 26.9796 26.069 25.9199 25.3609C24.8602 24.6529 24.0343 23.6465 23.5465 22.469C23.0588 21.2915 22.9312 19.9958 23.1798 18.7458C23.4285 17.4958 24.0422 16.3476 24.9434 15.4464C25.8446 14.5452 26.9929 13.9314 28.2429 13.6828C29.4929 13.4341 30.7886 13.5617 31.966 14.0495C33.1435 14.5372 34.1499 15.3632 34.858 16.4229C35.5661 17.4826 35.944 18.7285 35.944 20.003C35.9432 21.7115 35.264 23.3498 34.0556 24.5576C32.8472 25.7655 31.2086 26.444 29.5 26.444V26.447ZM29.5 15.707C29.1164 15.7124 28.7353 15.7696 28.367 15.877C28.6714 16.2893 28.8177 16.7972 28.7794 17.3083C28.7411 17.8194 28.5207 18.2998 28.1583 18.6622C27.7959 19.0246 27.3155 19.245 26.8044 19.2833C26.2933 19.3216 25.7854 19.1753 25.373 18.871C25.1381 19.7362 25.1805 20.6533 25.4941 21.4932C25.8077 22.3331 26.3767 23.0535 27.1212 23.553C27.8657 24.0525 28.7481 24.306 29.6441 24.2778C30.5402 24.2496 31.4049 23.9411 32.1165 23.3958C32.8281 22.8504 33.3507 22.0956 33.6109 21.2377C33.871 20.3797 33.8556 19.4618 33.5667 18.613C33.2779 17.7643 32.7302 17.0275 32.0006 16.5064C31.2711 15.9853 30.3966 15.706 29.5 15.708V15.707Z" fill="#722ED1"/>
<path d="M58.4996 25H60.1156L63.0436 16.248L65.9396 25H67.5556L71.1716 14.008H69.3796L66.6756 22.392L63.9236 14.008H62.1316L59.3796 22.392L56.6756 14.008H54.8836L58.4996 25ZM77.0288 16.536C75.8928 16.536 74.8848 17.128 74.3888 17.96V13.816H72.8208V25H74.3888V19.864C74.3888 18.792 75.4288 17.912 76.6768 17.912C77.7968 17.912 78.5808 18.776 78.5808 20.008V25H80.1328V19.736C80.1328 17.864 78.8528 16.536 77.0288 16.536ZM83.8549 27.88C85.0389 27.864 85.9189 27.24 86.5109 25.752L90.1589 16.728H88.5109L85.9989 23.256L83.3429 16.728H81.6469L85.1989 25.048L84.7829 25.928C84.5109 26.408 84.1589 26.568 83.6469 26.568C83.3269 26.568 82.9589 26.488 82.6389 26.312L82.2869 27.528C82.7189 27.752 83.2949 27.88 83.8549 27.88ZM107.516 19.496C107.516 16.408 104.924 13.816 101.836 13.816C98.7483 13.816 96.1243 16.408 96.1243 19.496C96.1243 22.584 98.7483 25.192 101.836 25.192C103.148 25.192 104.38 24.712 105.356 23.928L106.588 25L107.516 23.912L106.348 22.904C107.084 21.944 107.516 20.76 107.516 19.496ZM101.836 23.704C99.6443 23.704 97.7883 21.784 97.7883 19.496C97.7883 17.224 99.6443 15.304 101.836 15.304C104.028 15.304 105.868 17.224 105.868 19.496C105.868 20.36 105.596 21.176 105.148 21.864L103.532 20.456L102.604 21.544L104.172 22.904C103.516 23.4 102.7 23.704 101.836 23.704ZM115.142 16.728V22.088C115.014 23.064 114.022 23.816 112.87 23.816C111.75 23.816 110.966 22.952 110.966 21.72V16.728H109.414V21.992C109.414 23.864 110.694 25.192 112.518 25.192C113.638 25.192 114.646 24.616 115.142 23.8V25H116.726V16.728H115.142ZM123.616 16.536C122.336 16.536 121.312 17.144 120.672 18.152V13.816H119.104V25H120.672V23.56C121.312 24.584 122.336 25.192 123.616 25.192C125.792 25.192 127.424 23.4 127.424 20.856C127.424 18.328 125.792 16.536 123.616 16.536ZM123.232 23.816C121.744 23.816 120.672 22.584 120.672 20.856C120.672 19.128 121.744 17.912 123.232 17.912C124.752 17.912 125.824 19.128 125.824 20.856C125.824 22.584 124.752 23.816 123.232 23.816ZM129.336 25H130.904V13.816H129.336V25ZM134.667 27.88C135.851 27.864 136.731 27.24 137.323 25.752L140.971 16.728H139.323L136.811 23.256L134.155 16.728H132.459L136.011 25.048L135.595 25.928C135.323 26.408 134.971 26.568 134.459 26.568C134.139 26.568 133.771 26.488 133.451 26.312L133.099 27.528C133.531 27.752 134.107 27.88 134.667 27.88Z" fill="#722ED1"/>
</svg>
